<svg width="25" height="23" viewBox="0 0 25 16" fill="none" xmlns="http://www.w3.org/2000/svg">
<path d="M12.3728 10.488C12.3728 8.64001 11.4938 7.27402 9.67777 6.76202C11.0028 6.13102 11.6938 5.17502 11.6938 3.68802C11.6938 0.756016 9.50177 0.0410156 6.97277 0.0410156H0.00976562V14.762H7.16777C9.85177 14.762 12.3728 13.479 12.3728 10.488ZM3.25577 2.55402H6.30177C7.47277 2.55402 8.52677 2.88202 8.52677 4.23602C8.52677 5.48602 7.70677 5.98902 6.54677 5.98902H3.25577V2.55402ZM3.25477 12.262V8.20802H6.79277C8.22177 8.20802 9.12577 8.80202 9.12577 10.31C9.12577 11.797 8.04677 12.262 6.72577 12.262H3.25477Z" fill="white"/>
<path d="M18.805 15.0409C21.359 15.0409 23.013 13.8939 23.809 11.4559H21.217C20.938 12.3659 19.788 12.8469 18.896 12.8469C17.175 12.8469 16.271 11.8419 16.271 10.1339H23.984C23.997 9.96093 24.009 9.77393 24.009 9.58693C24.009 6.43393 22.159 3.80493 18.805 3.80493C15.546 3.80493 13.334 6.24693 13.334 9.44593C13.333 12.7639 15.429 15.0409 18.805 15.0409ZM18.713 6.01493C20.188 6.01493 20.93 6.87893 21.054 8.29193H16.275C16.372 6.89093 17.305 6.01493 18.713 6.01493Z" fill="white"/>
<path d="M15.6777 0.813965H21.6657V2.26397H15.6777V0.813965Z" fill="white"/>
</svg>
