<svg width="25" height="23" viewBox="0 0 25 16" fill="none" xmlns="http://www.w3.org/2000/svg">
<path d="M12.7732 11.2224C12.7732 9.37439 11.8942 8.00839 10.0782 7.49639C11.4032 6.86539 12.0942 5.90939 12.0942 4.42239C12.0942 1.49039 9.90216 0.775391 7.37316 0.775391H0.410156V15.4964H7.56816C10.2522 15.4964 12.7732 14.2134 12.7732 11.2224ZM3.65616 3.28839H6.70216C7.87316 3.28839 8.92716 3.61639 8.92716 4.97039C8.92716 6.22039 8.10716 6.72339 6.94716 6.72339H3.65616V3.28839ZM3.65516 12.9964V8.94239H7.19316C8.62216 8.94239 9.52616 9.53639 9.52616 11.0444C9.52616 12.5314 8.44716 12.9964 7.12616 12.9964H3.65516Z" fill="#C12000"/>
<path d="M19.2054 15.7753C21.7594 15.7753 23.4134 14.6283 24.2094 12.1903H21.6174C21.3384 13.1003 20.1884 13.5813 19.2964 13.5813C17.5754 13.5813 16.6714 12.5763 16.6714 10.8683H24.3844C24.3974 10.6953 24.4094 10.5083 24.4094 10.3213C24.4094 7.1683 22.5594 4.53931 19.2054 4.53931C15.9464 4.53931 13.7344 6.9813 13.7344 10.1803C13.7334 13.4983 15.8294 15.7753 19.2054 15.7753ZM19.1134 6.7493C20.5884 6.7493 21.3304 7.6133 21.4544 9.0263H16.6754C16.7724 7.6253 17.7054 6.7493 19.1134 6.7493Z" fill="#C12000"/>
<path d="M16.0776 1.54834H22.0656V2.99834H16.0776V1.54834Z" fill="#C12000"/>
</svg>
