<svg width="19" height="19" viewBox="0 0 19 19" fill="none" xmlns="http://www.w3.org/2000/svg">
<g clip-path="url(#clip0)">
<path d="M13.2301 0.0986328H4.97497C2.28826 0.0986328 0.102539 2.28436 0.102539 4.97106V13.2263C0.102539 15.9129 2.28826 18.0986 4.97497 18.0986H13.2302C15.9168 18.0986 18.1025 15.9129 18.1025 13.2263V4.97106C18.1025 2.28436 15.9168 0.0986328 13.2301 0.0986328V0.0986328ZM9.10252 14.0203C6.38863 14.0203 4.18079 11.8125 4.18079 9.09862C4.18079 6.38472 6.38863 4.17689 9.10252 4.17689C11.8164 4.17689 14.0243 6.38472 14.0243 9.09862C14.0243 11.8125 11.8164 14.0203 9.10252 14.0203ZM14.1419 5.33759C13.3399 5.33759 12.6876 4.68528 12.6876 3.88328C12.6876 3.08128 13.3399 2.42883 14.1419 2.42883C14.9439 2.42883 15.5964 3.08128 15.5964 3.88328C15.5964 4.68528 14.9439 5.33759 14.1419 5.33759Z" fill="white"/>
<path d="M9.10233 5.23218C6.97044 5.23218 5.23584 6.96664 5.23584 9.09867C5.23584 11.2306 6.97044 12.9652 9.10233 12.9652C11.2344 12.9652 12.9688 11.2306 12.9688 9.09867C12.9688 6.96664 11.2344 5.23218 9.10233 5.23218Z" fill="white"/>
<path d="M14.1418 3.48413C13.9218 3.48413 13.7427 3.66321 13.7427 3.88321C13.7427 4.10321 13.9218 4.28229 14.1418 4.28229C14.3619 4.28229 14.541 4.10335 14.541 3.88321C14.541 3.66307 14.3619 3.48413 14.1418 3.48413Z" fill="white"/>
</g>
<defs>
<clipPath id="clip0">
<rect width="18" height="18" fill="white" transform="translate(0.102539 0.0986328)"/>
</clipPath>
</defs>
</svg>
