<svg width="19" height="19" viewBox="0 0 19 19" fill="none" xmlns="http://www.w3.org/2000/svg">
<g clip-path="url(#clip0)">
<path d="M18.3026 18.0986V18.0978H18.3071V11.4963C18.3071 8.2668 17.6118 5.77905 13.8363 5.77905C12.0213 5.77905 10.8033 6.77505 10.3061 7.7193H10.2536V6.08055H6.67383V18.0978H10.4013V12.1473C10.4013 10.5806 10.6983 9.06555 12.6386 9.06555C14.5503 9.06555 14.5788 10.8536 14.5788 12.2478V18.0986H18.3026Z" fill="#C12000"/>
<path d="M0.60498 6.0813H4.33698V18.0985H0.60498V6.0813Z" fill="#C12000"/>
<path d="M2.46912 0.0986328C1.27587 0.0986328 0.307617 1.06688 0.307617 2.26013C0.307617 3.45338 1.27587 4.44188 2.46912 4.44188C3.66237 4.44188 4.63062 3.45338 4.63062 2.26013C4.62987 1.06688 3.66162 0.0986328 2.46912 0.0986328V0.0986328Z" fill="#C12000"/>
</g>
<defs>
<clipPath id="clip0">
<rect width="18" height="18" fill="white" transform="translate(0.307617 0.0986328)"/>
</clipPath>
</defs>
</svg>
