<svg width="23" height="22" viewBox="0 0 23 22" fill="none" xmlns="http://www.w3.org/2000/svg">
<g clip-path="url(#clip0)">
<path d="M22.5215 22V21.9991H22.527V13.9306C22.527 9.98345 21.6772 6.94287 17.0627 6.94287C14.8444 6.94287 13.3558 8.1602 12.748 9.31429H12.6838V7.31137H8.30859V21.9991H12.8644V14.7263C12.8644 12.8114 13.2274 10.9597 15.5988 10.9597C17.9354 10.9597 17.9702 13.145 17.9702 14.8491V22H22.5215Z" fill="#343434" fill-opacity="0.6"/>
<path d="M0.891357 7.31201H5.45269V21.9998H0.891357V7.31201Z" fill="#343434" fill-opacity="0.6"/>
<path d="M3.16967 0C1.71125 0 0.527832 1.18342 0.527832 2.64183C0.527832 4.10025 1.71125 5.30842 3.16967 5.30842C4.62808 5.30842 5.8115 4.10025 5.8115 2.64183C5.81058 1.18342 4.62717 0 3.16967 0V0Z" fill="#343434" fill-opacity="0.6"/>
</g>
<defs>
<clipPath id="clip0">
<rect width="22" height="22" fill="white" transform="translate(0.527832)"/>
</clipPath>
</defs>
</svg>
