<svg width="23" height="20" viewBox="0 0 23 20" fill="none" xmlns="http://www.w3.org/2000/svg">
<path d="M22.0291 3.07286C21.6834 3.22615 21.3281 3.35552 20.965 3.46055C21.3949 2.97442 21.7226 2.40242 21.9227 1.77649C21.9675 1.63619 21.921 1.48261 21.8057 1.39085C21.6905 1.29902 21.5305 1.28802 21.4037 1.36317C20.6326 1.82049 19.8007 2.14914 18.9285 2.34132C18.0498 1.48275 16.8564 0.994141 15.6227 0.994141C13.0186 0.994141 10.8999 3.11274 10.8999 5.71683C10.8999 5.92193 10.9129 6.12589 10.9386 6.32701C7.70706 6.04328 4.70278 4.45495 2.63975 1.92431C2.56622 1.83411 2.45296 1.7855 2.337 1.7948C2.22096 1.80388 2.11671 1.86931 2.05809 1.96988C1.63967 2.68786 1.41846 3.50902 1.41846 4.34453C1.41846 5.48249 1.82475 6.5622 2.54245 7.40586C2.32422 7.33028 2.11245 7.23582 1.91034 7.12362C1.80183 7.06323 1.6694 7.06415 1.5616 7.12597C1.45373 7.18778 1.3861 7.30147 1.38326 7.42573C1.38276 7.44667 1.38276 7.4676 1.38276 7.48882C1.38276 9.18744 2.29697 10.7167 3.69468 11.5502C3.5746 11.5382 3.4546 11.5209 3.33537 11.4981C3.21245 11.4746 3.08606 11.5177 3.00317 11.6114C2.92014 11.7051 2.89267 11.8357 2.93093 11.9549C3.44828 13.5701 4.78027 14.7582 6.39053 15.1204C5.05499 15.9569 3.52769 16.3951 1.92439 16.3951C1.58985 16.3951 1.25339 16.3754 0.9241 16.3364C0.760519 16.317 0.604106 16.4136 0.548396 16.5691C0.492687 16.7248 0.551732 16.8983 0.6909 16.9875C2.7506 18.3081 5.1322 19.0062 7.57811 19.0062C12.3865 19.0062 15.3944 16.7388 17.071 14.8366C19.1617 12.4648 20.3608 9.3254 20.3608 6.22347C20.3608 6.09388 20.3588 5.96302 20.3549 5.83258C21.1797 5.21111 21.8899 4.459 22.4678 3.59454C22.5556 3.46325 22.5461 3.28973 22.4444 3.16888C22.3428 3.04795 22.1735 3.00884 22.0291 3.07286Z" fill="#C12000"/>
</svg>
