<svg width="21" height="21" viewBox="0 0 21 21" fill="none" xmlns="http://www.w3.org/2000/svg">
<g clip-path="url(#clip0)">
<path d="M11.976 6.06748C14.2535 4.70001 15.4809 6.62747 14.3135 8.80617C13.1435 10.9936 12.0698 12.4198 11.5135 12.4198C10.9673 12.4198 10.5348 10.9524 9.8948 8.40493C9.23856 5.76623 9.23856 1.00884 6.49362 1.54882C3.89868 2.06131 0.5 6.12373 0.5 6.12373L1.30748 7.18745C1.30748 7.18745 2.98245 5.86623 3.53993 6.52372C4.10492 7.18745 6.24363 15.1573 6.95111 16.631C7.5686 17.9222 9.28231 19.6259 11.1548 18.411C13.0447 17.1885 19.2833 11.8611 20.4008 5.55749C21.5158 -0.734876 12.881 0.582595 11.976 6.06748Z" fill="white"/>
</g>
<defs>
<clipPath id="clip0">
<rect width="20" height="20" fill="white" transform="translate(0.5 0.0986328)"/>
</clipPath>
</defs>
</svg>
